<svg width="193" height="46" viewBox="0 0 193 46" fill="none" xmlns="http://www.w3.org/2000/svg">
<path d="M17 13.8006L35.1984 7L21.1696 15.3349L17 13.8006Z" fill="#D1AF69"/>
<path d="M24.1665 14.8373L25.1655 14.2568C24.8614 14.4226 24.514 14.63 24.1665 14.8373Z" fill="#1E2345"/>
<path d="M23.1037 19.3573V21.6795L34.7871 14.0495V11.7274L28.0116 16.1644L23.1037 19.3573Z" fill="#192542"/>
<path d="M34.787 15.4593L32.7891 16.7863C33.9618 17.4083 34.8739 18.2791 35.5688 19.3573C35.5254 19.4402 35.4819 19.4817 35.4385 19.5646C35.091 19.9793 34.787 20.3939 34.4396 20.8501C34.3961 20.8915 34.3961 20.933 34.3961 20.9745C34.5264 21.3062 34.7001 21.638 34.8304 21.9697C34.8304 22.0112 34.9173 22.0526 34.9607 22.0526C35.2648 22.0941 35.5688 22.1356 35.8728 22.177C36.1334 22.2185 36.394 22.26 36.6546 22.3014C36.6981 22.6332 36.7415 22.9649 36.7415 23.2966C36.7415 23.8772 36.6546 24.4577 36.5243 24.9968C36.09 25.0797 35.6557 25.1212 35.2213 25.2041C35.1779 25.2041 35.1779 25.2041 35.1779 25.2041C35.1779 25.2041 35.1779 25.2041 35.1345 25.2041C34.8304 25.2456 34.787 25.3285 34.787 25.3285L34.6567 25.6603L34.3961 26.3652C34.3527 26.4067 34.3527 26.4482 34.3961 26.4896C34.7001 26.8628 35.0042 27.236 35.3082 27.6092C34.7436 28.3971 34.0052 29.0606 33.18 29.5582L32.9194 29.3923L32.7891 29.3094V16.7863L31.2255 17.823L31.1821 30.4705C30.7043 30.5949 30.1831 30.7193 29.6619 30.7608V18.7767L28.0984 19.8134L28.0549 30.7193C27.5337 30.6778 27.056 30.5534 26.5348 30.429V20.7671L24.9712 21.8038V29.7656C22.9733 28.6874 21.54 26.7799 21.1057 24.5821C21.1057 24.4992 21.0622 24.4163 21.0622 24.3333C21.0622 24.2919 21.0622 24.2919 21.0622 24.2504C21.0188 23.9187 20.9754 23.5869 20.9754 23.2552C20.9754 23.2137 20.9754 23.2137 20.9754 23.1722C20.9754 21.3477 21.7137 19.689 22.843 18.4035C23.4945 17.6571 24.3197 17.0351 25.2318 16.5789L29.7054 13.6348L34.787 10.3174L36.3506 7L25.1884 14.2982L23.3207 15.5423C21.9309 16.4131 20.9319 17.3254 20.1936 18.3206C19.2815 19.7719 18.7169 21.4721 18.7169 23.3381C18.7169 28.6874 23.2339 33 28.8367 33C34.4396 32.9585 39 28.6459 39 23.2966C39 20.1037 37.3496 17.2424 34.787 15.4593Z" fill="#192542"/>
<path d="M94 13.8006L112.198 7L98.1695 15.3349L94 13.8006Z" fill="#D1AF69"/>
<path d="M101.166 14.8374L102.165 14.2569C101.861 14.4228 101.514 14.6301 101.166 14.8374Z" fill="#1E2345"/>
<path d="M100.104 19.3572V21.6794L111.787 14.0494V11.7272L105.011 16.1642L100.104 19.3572Z" fill="#192542"/>
<path d="M111.787 15.4593L109.789 16.7863C110.962 17.4083 111.874 18.2791 112.569 19.3573C112.525 19.4402 112.482 19.4817 112.438 19.5646C112.091 19.9793 111.787 20.3939 111.44 20.8501C111.396 20.8915 111.396 20.933 111.396 20.9745C111.526 21.3062 111.7 21.638 111.83 21.9697C111.83 22.0112 111.917 22.0526 111.961 22.0526C112.265 22.0941 112.569 22.1356 112.873 22.177C113.133 22.2185 113.394 22.26 113.655 22.3014C113.698 22.6332 113.741 22.9649 113.741 23.2966C113.741 23.8772 113.655 24.4577 113.524 24.9968C113.09 25.0797 112.656 25.1212 112.221 25.2041C112.178 25.2041 112.178 25.2041 112.178 25.2041C112.178 25.2041 112.178 25.2041 112.134 25.2041C111.83 25.2456 111.787 25.3285 111.787 25.3285L111.657 25.6603L111.396 26.3652C111.353 26.4067 111.353 26.4482 111.396 26.4896C111.7 26.8628 112.004 27.236 112.308 27.6092C111.744 28.3971 111.005 29.0606 110.18 29.5582L109.919 29.3923L109.789 29.3094V16.7863L108.225 17.823L108.182 30.4705C107.704 30.5949 107.183 30.7193 106.662 30.7608V18.7767L105.098 19.8134L105.055 30.7193C104.534 30.6778 104.056 30.5534 103.535 30.429V20.7671L101.971 21.8038V29.7656C99.9733 28.6874 98.54 26.7799 98.1057 24.5821C98.1057 24.4992 98.0622 24.4163 98.0622 24.3333C98.0622 24.2919 98.0622 24.2919 98.0622 24.2504C98.0188 23.9187 97.9754 23.5869 97.9754 23.2552C97.9754 23.2137 97.9754 23.2137 97.9754 23.1722C97.9754 21.3477 98.7137 19.689 99.843 18.4035C100.494 17.6571 101.32 17.0351 102.232 16.5789L106.705 13.6348L111.787 10.3174L113.351 7L102.188 14.2982L100.321 15.5423C98.9309 16.4131 97.9319 17.3254 97.1936 18.3206C96.2815 19.7719 95.7169 21.4721 95.7169 23.3381C95.7169 28.6874 100.234 33 105.837 33C111.44 32.9585 116 28.6459 116 23.2966C116 20.1037 114.35 17.2424 111.787 15.4593Z" fill="#192542"/>
<path d="M17.1094 33H12.7188V13.8125H6.28125V33H1.89062V10.25H17.1094V33ZM51.0312 16.0938H55.375V33H51.0312V22.2188L44.6719 33H40.3281V16.0938H44.6719V26.875L51.0312 16.0938ZM67.3438 29.8438C67.7708 29.8438 68.1771 29.7812 68.5625 29.6562C68.9479 29.5312 69.2865 29.3542 69.5781 29.125C69.8698 28.8958 70.0938 28.6198 70.25 28.2969C70.4167 27.974 70.4896 27.6146 70.4688 27.2188H74.5625C74.5833 28.0938 74.401 28.9062 74.0156 29.6562C73.6406 30.4062 73.125 31.0521 72.4688 31.5938C71.8125 32.1354 71.0469 32.5625 70.1719 32.875C69.3073 33.1771 68.3906 33.3281 67.4219 33.3281C66.1094 33.3281 64.9583 33.1094 63.9688 32.6719C62.9792 32.224 62.1562 31.6146 61.5 30.8438C60.8333 30.0729 60.3281 29.1719 59.9844 28.1406C59.651 27.099 59.4844 25.9844 59.4844 24.7969V24.3281C59.4844 23.1406 59.651 22.0312 59.9844 21C60.3177 19.9583 60.8177 19.0521 61.4844 18.2812C62.151 17.5104 62.974 16.901 63.9531 16.4531C64.9427 16.0052 66.0885 15.7812 67.3906 15.7812C68.4323 15.7812 69.3958 15.9375 70.2812 16.25C71.1667 16.5625 71.9323 17 72.5781 17.5625C73.2135 18.1354 73.7083 18.8281 74.0625 19.6406C74.4167 20.4427 74.5833 21.3438 74.5625 22.3438H70.4688C70.4896 21.9271 70.4271 21.5312 70.2812 21.1562C70.1354 20.7812 69.9219 20.4583 69.6406 20.1875C69.3594 19.9167 69.0208 19.7031 68.625 19.5469C68.2292 19.3802 67.7969 19.2969 67.3281 19.2969C66.6406 19.2969 66.0729 19.4375 65.625 19.7188C65.1771 20 64.8229 20.375 64.5625 20.8438C64.2917 21.3125 64.099 21.849 63.9844 22.4531C63.8802 23.0573 63.8281 23.6823 63.8281 24.3281V24.7969C63.8281 25.4531 63.8802 26.0885 63.9844 26.7031C64.0885 27.3073 64.276 27.8385 64.5469 28.2969C64.8073 28.7656 65.1615 29.1406 65.6094 29.4219C66.0677 29.7031 66.6458 29.8438 67.3438 29.8438ZM85.8438 26.6719H83.2969V33H78.9531V16.0938H83.2969V22.5625H85.5469L90.0938 16.0938H95.5625L89.3594 24.2344L96.0625 33H90.3125L85.8438 26.6719ZM117.469 33V16.0938H124.484C125.578 16.0938 126.562 16.1927 127.438 16.3906C128.323 16.5781 129.078 16.8646 129.703 17.25C130.318 17.6458 130.786 18.1406 131.109 18.7344C131.443 19.3281 131.609 20.0208 131.609 20.8125C131.609 21.2604 131.526 21.6823 131.359 22.0781C131.193 22.474 130.948 22.8333 130.625 23.1562C130.385 23.3958 130.094 23.6198 129.75 23.8281C129.417 24.026 129.036 24.1979 128.609 24.3438L128.797 24.375C129.391 24.5104 129.911 24.7031 130.359 24.9531C130.807 25.1927 131.188 25.4688 131.5 25.7812C131.812 26.1146 132.047 26.4844 132.203 26.8906C132.359 27.2969 132.438 27.724 132.438 28.1719C132.438 28.974 132.281 29.6771 131.969 30.2812C131.667 30.8854 131.224 31.3854 130.641 31.7812C130.057 32.1875 129.339 32.4948 128.484 32.7031C127.641 32.901 126.672 33 125.578 33H117.469ZM121.812 25.9531V29.5469H125.578C126.016 29.5469 126.396 29.5104 126.719 29.4375C127.042 29.3542 127.302 29.2396 127.5 29.0938C127.708 28.9375 127.859 28.75 127.953 28.5312C128.047 28.3125 128.094 28.0573 128.094 27.7656C128.094 27.5052 128.052 27.2708 127.969 27.0625C127.885 26.8438 127.75 26.6562 127.562 26.5C127.365 26.3229 127.099 26.1875 126.766 26.0938C126.443 26 126.047 25.9531 125.578 25.9531H121.812ZM121.812 23H124.719C125.156 22.9896 125.536 22.9479 125.859 22.875C126.182 22.8021 126.448 22.6979 126.656 22.5625C126.865 22.4271 127.016 22.2604 127.109 22.0625C127.214 21.8646 127.266 21.6354 127.266 21.375C127.266 21.0833 127.219 20.8333 127.125 20.625C127.031 20.4062 126.885 20.224 126.688 20.0781C126.469 19.9115 126.172 19.7865 125.797 19.7031C125.432 19.6198 124.995 19.5781 124.484 19.5781H121.812V23ZM147.125 16.0938H151.469V33H147.125V22.2188L140.766 33H136.422V16.0938H140.766V26.875L147.125 16.0938ZM162.719 26.6719H160.172V33H155.828V16.0938H160.172V22.5625H162.422L166.969 16.0938H172.438L166.234 24.2344L172.938 33H167.188L162.719 26.6719Z" fill="#192542"/>
</svg>
